<svg width="128" height="128" viewBox="0 0 128 128" fill="none" xmlns="http://www.w3.org/2000/svg">
  <rect width="128" height="128" rx="28" fill="#D6B594"/>
  <path d="M39 33C39 25.8203 44.8203 20 52 20H76C83.1797 20 89 25.8203 89 33V43C89 47.9706 84.9706 52 80 52H48C43.0294 52 39 47.9706 39 43V33Z" fill="#6A432E"/>
  <path d="M44 49H84V72C84 88.5685 70.5685 102 54 102C48.4772 102 44 97.5228 44 92V49Z" fill="#85573D"/>
  <path d="M84 49H92C98.6274 49 104 54.3726 104 61C104 67.6274 98.6274 73 92 73H84V49Z" fill="#85573D"/>
  <path d="M52 65C56.9706 65 61 60.9706 61 56H67C67 64.2843 60.2843 71 52 71V65Z" fill="#D6B594"/>
</svg>
